<svg width="128" height="168" viewBox="0 0 128 168" fill="none" xmlns="http://www.w3.org/2000/svg">
<circle cx="64" cy="74" r="64" fill="url(#paint0_linear)"/>
<path d="M21.2414 134.272V95.6628H43.7415V147.343L21.9983 135.542C21.5318 135.289 21.2414 134.802 21.2414 134.272Z" fill="url(#paint1_linear)"/>
<path fill-rule="evenodd" clip-rule="evenodd" d="M21 95.4217H43.9831V147.749L21.883 135.754C21.3388 135.459 21 134.89 21 134.272V95.4217ZM21.483 95.9038V134.272C21.483 134.713 21.725 135.12 22.1137 135.331L43.5001 146.938V95.9038H21.483Z" fill="url(#paint2_linear)"/>
<path fill-rule="evenodd" clip-rule="evenodd" d="M23.7184 133.23V115.288H23.4261V133.473L23.5483 133.493C23.9523 133.56 24.4017 133.799 24.7686 134.148C25.1352 134.496 25.4065 134.942 25.4738 135.412L25.485 135.491L37.3107 141.019V121.274H37.0183V140.56L25.7502 135.292C25.6541 134.772 25.3518 134.299 24.9702 133.937C24.6042 133.589 24.1543 133.332 23.7184 133.23Z" fill="url(#paint3_linear)"/>
<path fill-rule="evenodd" clip-rule="evenodd" d="M37.0019 139.493C37.3171 138.961 37.3351 138.206 37.3107 137.719L37.0187 137.733C37.043 138.219 37.0172 138.894 36.7503 139.344C36.6209 139.563 36.4377 139.723 36.1742 139.789C35.9059 139.857 35.5353 139.831 35.0255 139.633L34.9195 139.905C35.4619 140.115 35.8976 140.16 36.2453 140.072C36.5977 139.984 36.8402 139.766 37.0019 139.493Z" fill="#D4B195"/>
<path d="M106.217 134.272V95.6628H83.7172V147.343L105.46 135.542C105.927 135.289 106.217 134.802 106.217 134.272Z" fill="url(#paint4_linear)"/>
<path fill-rule="evenodd" clip-rule="evenodd" d="M106.459 95.4217H83.4759V147.749L105.576 135.754C106.12 135.459 106.459 134.89 106.459 134.272V95.4217ZM105.976 95.9038V134.272C105.976 134.713 105.734 135.12 105.345 135.331L83.9589 146.938V95.9038H105.976Z" fill="url(#paint5_linear)"/>
<path fill-rule="evenodd" clip-rule="evenodd" d="M103.741 133.23V115.288H104.033V133.473L103.911 133.493C103.507 133.56 103.057 133.799 102.69 134.148C102.324 134.496 102.053 134.942 101.985 135.412L101.974 135.491L90.1484 141.019V121.274H90.4407V140.56L101.709 135.292C101.805 134.772 102.107 134.299 102.489 133.937C102.855 133.589 103.305 133.332 103.741 133.23Z" fill="url(#paint6_linear)"/>
<path fill-rule="evenodd" clip-rule="evenodd" d="M90.4572 139.493C90.1419 138.961 90.1239 138.206 90.1484 137.719L90.4403 137.733C90.416 138.219 90.4418 138.894 90.7087 139.344C90.8381 139.563 91.0213 139.723 91.2849 139.789C91.5531 139.857 91.9237 139.831 92.4336 139.633L92.5395 139.905C91.9971 140.115 91.5614 140.16 91.2137 140.072C90.8613 139.984 90.6188 139.766 90.4572 139.493Z" fill="#D4B195"/>
<path d="M39.5913 93.4821H87.6497V154.402L63.9482 166.429C63.5503 166.631 63.0796 166.63 62.6825 166.427L39.5913 154.611V93.4821Z" fill="url(#paint7_linear)"/>
<path fill-rule="evenodd" clip-rule="evenodd" d="M39.1084 93H88.1329V154.698L64.1672 166.859C63.6313 167.131 62.9973 167.13 62.4623 166.856L39.1084 154.906V93ZM40.0744 93.9643V154.317L62.9029 165.998C63.1623 166.13 63.4697 166.131 63.7295 165.999L87.1669 154.106V93.9643H40.0744Z" fill="url(#paint8_linear)"/>
<path fill-rule="evenodd" clip-rule="evenodd" d="M70.6108 162.612L63.9484 165.993C63.5505 166.195 63.0798 166.194 62.6827 165.991L55.7563 162.446V117.905H70.6108V162.612Z" fill="url(#paint9_linear)"/>
<path fill-rule="evenodd" clip-rule="evenodd" d="M42.2129 126.191H42.9091V153.457L63.4482 164.056L84.3325 153.456V126.191H85.0286V153.703L63.4452 164.57L42.2129 153.702V126.191Z" fill="url(#paint10_linear)"/>
<path fill-rule="evenodd" clip-rule="evenodd" d="M63.5914 154.539V162.452H63.2117V154.539H63.5914Z" fill="url(#paint11_linear)"/>
<path fill-rule="evenodd" clip-rule="evenodd" d="M62.2634 159.644C61.5076 160.514 60.5866 160.707 59.9525 160.602L60.015 160.228C60.5202 160.312 61.3082 160.165 61.9765 159.395C62.6474 158.623 63.2118 157.206 63.2118 154.729H63.5916C63.5916 157.256 63.0167 158.776 62.2634 159.644Z" fill="url(#paint12_linear)"/>
<path fill-rule="evenodd" clip-rule="evenodd" d="M64.5395 159.644C65.2954 160.514 66.2163 160.707 66.8504 160.602L66.788 160.228C66.2828 160.312 65.4947 160.165 64.8265 159.395C64.1556 158.623 63.5912 157.206 63.5912 154.729H63.2114C63.2114 157.256 63.7863 158.776 64.5395 159.644Z" fill="url(#paint13_linear)"/>
<path fill-rule="evenodd" clip-rule="evenodd" d="M63.3216 162.624L59.0334 160.226L59.9829 160.226L63.401 162.243L66.8187 160.209H67.6567L63.4793 162.624C63.4292 162.647 63.3716 162.647 63.3216 162.624Z" fill="url(#paint14_linear)"/>
<rect x="4" y="14" width="120" height="120" rx="60" fill="white"/>
<rect x="51.5" y="1.5" width="25" height="25" rx="12.5" fill="#FDB041" stroke="#F2F2F2" stroke-width="3"/>
<path d="M64.584 18H63.166V11.1504L61.0742 11.8652V10.6641L64.4023 9.43945H64.584V18Z" fill="white"/>
<path d="M35.5596 107.983C35.7358 108.116 35.9592 108.068 36.2256 107.875L38.4987 106.208L40.776 107.875C41.0424 108.068 41.2615 108.116 41.442 107.983C41.6182 107.849 41.6569 107.63 41.5494 107.317L40.6514 104.644L42.9459 102.994C43.2123 102.805 43.3198 102.607 43.251 102.392C43.1823 102.186 42.9803 102.083 42.6494 102.087L39.835 102.104L38.9799 99.4188C38.8768 99.1009 38.7221 98.9419 38.4987 98.9419C38.2795 98.9419 38.1248 99.1009 38.0217 99.4188L37.1666 102.104L34.3522 102.087C34.0213 102.083 33.8194 102.186 33.7506 102.392C33.6776 102.607 33.7893 102.805 34.0557 102.994L36.3502 104.644L35.4522 107.317C35.3448 107.63 35.3834 107.849 35.5596 107.983Z" fill="#FFB904"/>
<path d="M48.5596 107.983C48.7358 108.116 48.9592 108.068 49.2256 107.875L51.4987 106.208L53.776 107.875C54.0424 108.068 54.2615 108.116 54.442 107.983C54.6182 107.849 54.6569 107.63 54.5494 107.317L53.6514 104.644L55.9459 102.994C56.2123 102.805 56.3198 102.607 56.251 102.392C56.1823 102.186 55.9803 102.083 55.6494 102.087L52.835 102.104L51.9799 99.4188C51.8768 99.1009 51.7221 98.9419 51.4987 98.9419C51.2795 98.9419 51.1248 99.1009 51.0217 99.4188L50.1666 102.104L47.3522 102.087C47.0213 102.083 46.8194 102.186 46.7506 102.392C46.6776 102.607 46.7893 102.805 47.0557 102.994L49.3502 104.644L48.4522 107.317C48.3448 107.63 48.3834 107.849 48.5596 107.983Z" fill="#FFB904"/>
<path d="M61.5596 107.983C61.7358 108.116 61.9592 108.068 62.2256 107.875L64.4987 106.208L66.776 107.875C67.0424 108.068 67.2615 108.116 67.442 107.983C67.6182 107.849 67.6569 107.63 67.5494 107.317L66.6514 104.644L68.9459 102.994C69.2123 102.805 69.3198 102.607 69.251 102.392C69.1823 102.186 68.9803 102.083 68.6494 102.087L65.835 102.104L64.9799 99.4188C64.8768 99.1009 64.7221 98.9419 64.4987 98.9419C64.2795 98.9419 64.1248 99.1009 64.0217 99.4188L63.1666 102.104L60.3522 102.087C60.0213 102.083 59.8194 102.186 59.7506 102.392C59.6776 102.607 59.7893 102.805 60.0557 102.994L62.3502 104.644L61.4522 107.317C61.3448 107.63 61.3834 107.849 61.5596 107.983Z" fill="#FFB904"/>
<path d="M74.5596 107.983C74.7358 108.116 74.9592 108.068 75.2256 107.875L77.4987 106.208L79.776 107.875C80.0424 108.068 80.2615 108.116 80.442 107.983C80.6182 107.849 80.6569 107.63 80.5494 107.317L79.6514 104.644L81.9459 102.994C82.2123 102.805 82.3198 102.607 82.251 102.392C82.1823 102.186 81.9803 102.083 81.6494 102.087L78.835 102.104L77.9799 99.4188C77.8768 99.1009 77.7221 98.9419 77.4987 98.9419C77.2795 98.9419 77.1248 99.1009 77.0217 99.4188L76.1666 102.104L73.3522 102.087C73.0213 102.083 72.8194 102.186 72.7506 102.392C72.6776 102.607 72.7893 102.805 73.0557 102.994L75.3502 104.644L74.4522 107.317C74.3448 107.63 74.3834 107.849 74.5596 107.983Z" fill="#FFB904"/>
<path d="M87.5596 107.983C87.7358 108.116 87.9592 108.068 88.2256 107.875L90.4987 106.208L92.776 107.875C93.0424 108.068 93.2616 108.116 93.442 107.983C93.6182 107.849 93.6569 107.63 93.5494 107.317L92.6514 104.644L94.9459 102.994C95.2123 102.805 95.3198 102.607 95.251 102.392C95.1823 102.186 94.9803 102.083 94.6494 102.087L91.835 102.104L90.9799 99.4188C90.8768 99.1009 90.7221 98.9419 90.4987 98.9419C90.2795 98.9419 90.1248 99.1009 90.0217 99.4188L89.1666 102.104L86.3522 102.087C86.0213 102.083 85.8194 102.186 85.7506 102.392C85.6776 102.607 85.7893 102.805 86.0557 102.994L88.3502 104.644L87.4522 107.317C87.3448 107.63 87.3834 107.849 87.5596 107.983Z" fill="#FFB904"/>
<defs>
<linearGradient id="paint0_linear" x1="37.12" y1="24.5357" x2="83.5251" y2="129.746" gradientUnits="userSpaceOnUse">
<stop stop-color="#FFE6B5"/>
<stop offset="1" stop-color="#FFAF3E"/>
</linearGradient>
<linearGradient id="paint1_linear" x1="27.7665" y1="101.532" x2="53.1357" y2="126.573" gradientUnits="userSpaceOnUse">
<stop stop-color="#FFE6B5"/>
<stop offset="1" stop-color="#FFAF3E"/>
</linearGradient>
<linearGradient id="paint2_linear" x1="21.2415" y1="130.885" x2="44.3377" y2="136.113" gradientUnits="userSpaceOnUse">
<stop stop-color="#8D664F"/>
<stop offset="0.208702" stop-color="#C49F7D"/>
<stop offset="0.648432" stop-color="#FFF1DC"/>
<stop offset="0.827985" stop-color="#B38368"/>
<stop offset="0.971703" stop-color="#8C5F4C"/>
</linearGradient>
<linearGradient id="paint3_linear" x1="24.0814" y1="130.116" x2="32.4349" y2="127.622" gradientUnits="userSpaceOnUse">
<stop stop-color="#C7A383"/>
<stop offset="0.309893" stop-color="#D5B198"/>
<stop offset="0.523799" stop-color="#CBA68C"/>
<stop offset="0.77229" stop-color="#BB9478"/>
<stop offset="1" stop-color="#D7B49B"/>
</linearGradient>
<linearGradient id="paint4_linear" x1="99.6923" y1="101.532" x2="74.3231" y2="126.573" gradientUnits="userSpaceOnUse">
<stop stop-color="#FFE6B5"/>
<stop offset="1" stop-color="#FFAF3E"/>
</linearGradient>
<linearGradient id="paint5_linear" x1="106.217" y1="130.885" x2="83.1213" y2="136.113" gradientUnits="userSpaceOnUse">
<stop stop-color="#8D664F"/>
<stop offset="0.208702" stop-color="#C49F7D"/>
<stop offset="0.648432" stop-color="#FFF1DC"/>
<stop offset="0.827985" stop-color="#B38368"/>
<stop offset="0.971703" stop-color="#8C5F4C"/>
</linearGradient>
<linearGradient id="paint6_linear" x1="103.378" y1="130.116" x2="95.0242" y2="127.622" gradientUnits="userSpaceOnUse">
<stop stop-color="#C7A383"/>
<stop offset="0.309893" stop-color="#D5B198"/>
<stop offset="0.523799" stop-color="#CBA68C"/>
<stop offset="0.77229" stop-color="#BB9478"/>
<stop offset="1" stop-color="#D7B49B"/>
</linearGradient>
<linearGradient id="paint7_linear" x1="53.5282" y1="101.783" x2="86.7333" y2="151.278" gradientUnits="userSpaceOnUse">
<stop stop-color="#FFE6B5"/>
<stop offset="1" stop-color="#E18400"/>
</linearGradient>
<linearGradient id="paint8_linear" x1="39.5914" y1="143.418" x2="86.0481" y2="159.26" gradientUnits="userSpaceOnUse">
<stop stop-color="#8D664F"/>
<stop offset="0.208702" stop-color="#FFF5E6"/>
<stop offset="0.648432" stop-color="#ECD8BA"/>
<stop offset="0.780206" stop-color="#D0A568"/>
<stop offset="0.971703" stop-color="#8C5F4C"/>
</linearGradient>
<linearGradient id="paint9_linear" x1="60.0641" y1="123.383" x2="82.2953" y2="138.904" gradientUnits="userSpaceOnUse">
<stop stop-color="#FFE6B5"/>
<stop offset="1" stop-color="#FFAF3E"/>
</linearGradient>
<linearGradient id="paint10_linear" x1="83.0081" y1="149.017" x2="65.4999" y2="135.427" gradientUnits="userSpaceOnUse">
<stop stop-color="#ECD8BA"/>
<stop offset="0.309893" stop-color="#EBD3AE"/>
<stop offset="0.523799" stop-color="#E2C69C"/>
<stop offset="0.77229" stop-color="#E3C8A0"/>
<stop offset="1" stop-color="#ECD8BA"/>
</linearGradient>
<linearGradient id="paint11_linear" x1="63.4016" y1="154.539" x2="63.4016" y2="161.931" gradientUnits="userSpaceOnUse">
<stop stop-color="#FAECD8"/>
<stop offset="0.491891" stop-color="#F9EBD7"/>
<stop offset="1" stop-color="#ECD5B4"/>
</linearGradient>
<linearGradient id="paint12_linear" x1="61.7721" y1="154.729" x2="61.7721" y2="160.628" gradientUnits="userSpaceOnUse">
<stop stop-color="#F9EBD7"/>
<stop offset="0.479167" stop-color="#FAEDD9"/>
<stop offset="1" stop-color="#F8E9D4"/>
</linearGradient>
<linearGradient id="paint13_linear" x1="65.0309" y1="154.729" x2="65.0309" y2="160.628" gradientUnits="userSpaceOnUse">
<stop stop-color="#FAEDD8"/>
<stop offset="0.479167" stop-color="#FAECD8"/>
<stop offset="1" stop-color="#EAD4B2"/>
</linearGradient>
<linearGradient id="paint14_linear" x1="62.9412" y1="161.04" x2="58.0151" y2="161.625" gradientUnits="userSpaceOnUse">
<stop stop-color="#E5CBA6"/>
<stop offset="0.309893" stop-color="#FAEDDA"/>
<stop offset="0.523799" stop-color="#F3E2C9"/>
<stop offset="0.613641" stop-color="#EFDCC0"/>
<stop offset="1" stop-color="#EFDCC0"/>
</linearGradient>
</defs>
</svg>
