<svg width="128" height="168" viewBox="0 0 128 168" fill="none" xmlns="http://www.w3.org/2000/svg">
    <circle cx="64" cy="74" r="64" fill="url(#gold-cup-top_svg__paint0_linear)"/>
    <path d="M21.241 134.272v-38.61h22.5v51.681l-21.743-11.801a1.445 1.445 0 0 1-.757-1.27z" fill="url(#gold-cup-top_svg__paint1_linear)"/>
    <path fill-rule="evenodd" clip-rule="evenodd" d="M21 95.422h22.983v52.327l-22.1-11.995a1.686 1.686 0 0 1-.883-1.482v-38.85zm.483.482v38.368c0 .441.242.848.63 1.059L43.5 146.938V95.904H21.483z" fill="url(#gold-cup-top_svg__paint2_linear)"/>
    <path fill-rule="evenodd" clip-rule="evenodd" d="M23.718 133.23v-17.942h-.292v18.185l.122.02c.404.067.854.306 1.22.655.367.348.639.794.706 1.264l.011.079 11.826 5.528v-19.745h-.293v19.286l-11.268-5.268c-.096-.52-.398-.993-.78-1.355-.366-.348-.816-.605-1.252-.707z" fill="url(#gold-cup-top_svg__paint3_linear)"/>
    <path fill-rule="evenodd" clip-rule="evenodd" d="M37.002 139.493c.315-.532.333-1.287.309-1.774l-.292.014c.024.486-.002 1.161-.269 1.611a.908.908 0 0 1-.576.445c-.268.068-.639.042-1.148-.156l-.107.272c.543.21.979.255 1.326.167a1.2 1.2 0 0 0 .757-.579z" fill="#D4B195"/>
    <path d="M106.217 134.272v-38.61h-22.5v51.681l21.743-11.801c.467-.253.757-.74.757-1.27z" fill="url(#gold-cup-top_svg__paint4_linear)"/>
    <path fill-rule="evenodd" clip-rule="evenodd" d="M106.459 95.422H83.476v52.327l22.1-11.995c.544-.295.883-.864.883-1.482v-38.85zm-.483.482v38.368c0 .441-.242.848-.631 1.059l-21.386 11.607V95.904h22.017z" fill="url(#gold-cup-top_svg__paint5_linear)"/>
    <path fill-rule="evenodd" clip-rule="evenodd" d="M103.741 133.23v-17.942h.292v18.185l-.122.02c-.404.067-.854.306-1.221.655-.366.348-.637.794-.705 1.264l-.011.079-11.826 5.528v-19.745h.293v19.286l11.268-5.268c.096-.52.398-.993.78-1.355.366-.348.816-.605 1.252-.707z" fill="url(#gold-cup-top_svg__paint6_linear)"/>
    <path fill-rule="evenodd" clip-rule="evenodd" d="M90.457 139.493c-.315-.532-.333-1.287-.309-1.774l.292.014c-.024.486.002 1.161.269 1.611.13.219.312.379.576.445.268.068.639.042 1.149-.156l.106.272c-.543.21-.979.255-1.326.167a1.2 1.2 0 0 1-.757-.579z" fill="#D4B195"/>
    <path d="M39.591 93.482H87.65v60.92l-23.702 12.027a1.394 1.394 0 0 1-1.266-.002l-23.09-11.816V93.482z" fill="url(#gold-cup-top_svg__paint7_linear)"/>
    <path fill-rule="evenodd" clip-rule="evenodd" d="M39.108 93h49.025v61.698l-23.966 12.161a1.877 1.877 0 0 1-1.705-.003l-23.354-11.95V93zm.966.964v60.353l22.829 11.681c.26.132.567.133.827.001l23.437-11.893V93.964H40.074z" fill="url(#gold-cup-top_svg__paint8_linear)"/>
    <path fill-rule="evenodd" clip-rule="evenodd" d="m70.61 162.612-6.662 3.381a1.394 1.394 0 0 1-1.265-.002l-6.927-3.545v-44.541h14.855v44.707z" fill="url(#gold-cup-top_svg__paint9_linear)"/>
    <path fill-rule="evenodd" clip-rule="evenodd" d="M42.213 126.191h.696v27.266l20.54 10.599 20.883-10.6v-27.265h.697v27.512L63.445 164.57l-21.232-10.868v-27.511z" fill="url(#gold-cup-top_svg__paint10_linear)"/>
    <path fill-rule="evenodd" clip-rule="evenodd" d="M63.591 154.539v7.913h-.38v-7.913h.38z" fill="url(#gold-cup-top_svg__paint11_linear)"/>
    <path fill-rule="evenodd" clip-rule="evenodd" d="M62.263 159.644c-.755.87-1.676 1.063-2.31.958l.062-.374c.505.084 1.293-.063 1.962-.833.67-.772 1.235-2.189 1.235-4.666h.38c0 2.527-.575 4.047-1.329 4.915z" fill="url(#gold-cup-top_svg__paint12_linear)"/>
    <path fill-rule="evenodd" clip-rule="evenodd" d="M64.54 159.644c.755.87 1.676 1.063 2.31.958l-.062-.374c-.505.084-1.293-.063-1.962-.833-.67-.772-1.235-2.189-1.235-4.666h-.38c0 2.527.575 4.047 1.329 4.915z" fill="url(#gold-cup-top_svg__paint13_linear)"/>
    <path fill-rule="evenodd" clip-rule="evenodd" d="m63.322 162.624-4.289-2.398h.95l3.418 2.017 3.418-2.034h.838l-4.178 2.415a.189.189 0 0 1-.157 0z" fill="url(#gold-cup-top_svg__paint14_linear)"/>
    <rect x="4" y="14" width="120" height="120" rx="60" fill="#fff"/>
    <rect x="51.5" y="1.5" width="25" height="25" rx="12.5" fill="#FDB041" stroke="#F2F2F2" stroke-width="3"/>
    <path d="M64.584 18h-1.418v-6.85l-2.092.715v-1.2l3.328-1.226h.182V18z" fill="#fff"/>
    <path d="M35.56 107.983c.176.133.4.085.666-.108l2.273-1.667 2.277 1.667c.266.193.485.241.666.108.176-.134.215-.353.107-.666l-.898-2.673 2.295-1.65c.266-.189.374-.387.305-.602-.069-.206-.27-.309-.602-.305l-2.814.017-.855-2.685c-.103-.318-.258-.477-.481-.477-.22 0-.374.159-.477.477l-.855 2.685-2.815-.017c-.33-.004-.533.099-.601.305-.073.215.038.413.305.602l2.294 1.65-.898 2.673c-.107.313-.069.532.108.666zM48.56 107.983c.176.133.4.085.666-.108l2.273-1.667 2.277 1.667c.266.193.485.241.666.108.176-.134.215-.353.107-.666l-.898-2.673 2.295-1.65c.266-.189.374-.387.305-.602-.069-.206-.27-.309-.602-.305l-2.814.017-.855-2.685c-.103-.318-.258-.477-.481-.477-.22 0-.374.159-.477.477l-.855 2.685-2.815-.017c-.33-.004-.533.099-.601.305-.073.215.038.413.305.602l2.294 1.65-.898 2.673c-.107.313-.069.532.108.666zM61.56 107.983c.176.133.4.085.666-.108l2.273-1.667 2.277 1.667c.266.193.486.241.666.108.176-.134.215-.353.107-.666l-.898-2.673 2.295-1.65c.266-.189.374-.387.305-.602-.069-.206-.27-.309-.602-.305l-2.814.017-.855-2.685c-.103-.318-.258-.477-.481-.477-.22 0-.374.159-.477.477l-.855 2.685-2.815-.017c-.33-.004-.533.099-.601.305-.073.215.038.413.305.602l2.294 1.65-.898 2.673c-.107.313-.069.532.108.666zM74.56 107.983c.176.133.4.085.666-.108l2.273-1.667 2.277 1.667c.266.193.486.241.666.108.176-.134.215-.353.107-.666l-.898-2.673 2.295-1.65c.266-.189.374-.387.305-.602-.069-.206-.27-.309-.602-.305l-2.814.017-.855-2.685c-.103-.318-.258-.477-.481-.477-.22 0-.374.159-.477.477l-.855 2.685-2.815-.017c-.33-.004-.533.099-.601.305-.073.215.038.413.305.602l2.294 1.65-.898 2.673c-.107.313-.069.532.108.666zM87.56 107.983c.176.133.4.085.666-.108l2.273-1.667 2.277 1.667c.266.193.486.241.666.108.176-.134.215-.353.107-.666l-.898-2.673 2.295-1.65c.266-.189.374-.387.305-.602-.069-.206-.27-.309-.602-.305l-2.814.017-.855-2.685c-.103-.318-.258-.477-.481-.477-.22 0-.374.159-.477.477l-.855 2.685-2.815-.017c-.33-.004-.533.099-.601.305-.073.215.038.413.305.602l2.294 1.65-.898 2.673c-.107.313-.069.532.108.666z" fill="#FFB904"/>
    <defs>
        <linearGradient id="gold-cup-top_svg__paint0_linear" x1="37.12" y1="24.536" x2="83.525" y2="129.746" gradientUnits="userSpaceOnUse">
            <stop stop-color="#FFE6B5"/>
            <stop offset="1" stop-color="#FFAF3E"/>
        </linearGradient>
        <linearGradient id="gold-cup-top_svg__paint1_linear" x1="27.767" y1="101.532" x2="53.136" y2="126.573" gradientUnits="userSpaceOnUse">
            <stop stop-color="#FFE6B5"/>
            <stop offset="1" stop-color="#FFAF3E"/>
        </linearGradient>
        <linearGradient id="gold-cup-top_svg__paint2_linear" x1="21.241" y1="130.885" x2="44.338" y2="136.113" gradientUnits="userSpaceOnUse">
            <stop stop-color="#8D664F"/>
            <stop offset=".209" stop-color="#C49F7D"/>
            <stop offset=".648" stop-color="#FFF1DC"/>
            <stop offset=".828" stop-color="#B38368"/>
            <stop offset=".972" stop-color="#8C5F4C"/>
        </linearGradient>
        <linearGradient id="gold-cup-top_svg__paint3_linear" x1="24.081" y1="130.116" x2="32.435" y2="127.622" gradientUnits="userSpaceOnUse">
            <stop stop-color="#C7A383"/>
            <stop offset=".31" stop-color="#D5B198"/>
            <stop offset=".524" stop-color="#CBA68C"/>
            <stop offset=".772" stop-color="#BB9478"/>
            <stop offset="1" stop-color="#D7B49B"/>
        </linearGradient>
        <linearGradient id="gold-cup-top_svg__paint4_linear" x1="99.692" y1="101.532" x2="74.323" y2="126.573" gradientUnits="userSpaceOnUse">
            <stop stop-color="#FFE6B5"/>
            <stop offset="1" stop-color="#FFAF3E"/>
        </linearGradient>
        <linearGradient id="gold-cup-top_svg__paint5_linear" x1="106.217" y1="130.885" x2="83.121" y2="136.113" gradientUnits="userSpaceOnUse">
            <stop stop-color="#8D664F"/>
            <stop offset=".209" stop-color="#C49F7D"/>
            <stop offset=".648" stop-color="#FFF1DC"/>
            <stop offset=".828" stop-color="#B38368"/>
            <stop offset=".972" stop-color="#8C5F4C"/>
        </linearGradient>
        <linearGradient id="gold-cup-top_svg__paint6_linear" x1="103.378" y1="130.116" x2="95.024" y2="127.622" gradientUnits="userSpaceOnUse">
            <stop stop-color="#C7A383"/>
            <stop offset=".31" stop-color="#D5B198"/>
            <stop offset=".524" stop-color="#CBA68C"/>
            <stop offset=".772" stop-color="#BB9478"/>
            <stop offset="1" stop-color="#D7B49B"/>
        </linearGradient>
        <linearGradient id="gold-cup-top_svg__paint7_linear" x1="53.528" y1="101.783" x2="86.733" y2="151.278" gradientUnits="userSpaceOnUse">
            <stop stop-color="#FFE6B5"/>
            <stop offset="1" stop-color="#E18400"/>
        </linearGradient>
        <linearGradient id="gold-cup-top_svg__paint8_linear" x1="39.591" y1="143.418" x2="86.048" y2="159.26" gradientUnits="userSpaceOnUse">
            <stop stop-color="#8D664F"/>
            <stop offset=".209" stop-color="#FFF5E6"/>
            <stop offset=".648" stop-color="#ECD8BA"/>
            <stop offset=".78" stop-color="#D0A568"/>
            <stop offset=".972" stop-color="#8C5F4C"/>
        </linearGradient>
        <linearGradient id="gold-cup-top_svg__paint9_linear" x1="60.064" y1="123.383" x2="82.295" y2="138.904" gradientUnits="userSpaceOnUse">
            <stop stop-color="#FFE6B5"/>
            <stop offset="1" stop-color="#FFAF3E"/>
        </linearGradient>
        <linearGradient id="gold-cup-top_svg__paint10_linear" x1="83.008" y1="149.017" x2="65.5" y2="135.427" gradientUnits="userSpaceOnUse">
            <stop stop-color="#ECD8BA"/>
            <stop offset=".31" stop-color="#EBD3AE"/>
            <stop offset=".524" stop-color="#E2C69C"/>
            <stop offset=".772" stop-color="#E3C8A0"/>
            <stop offset="1" stop-color="#ECD8BA"/>
        </linearGradient>
        <linearGradient id="gold-cup-top_svg__paint11_linear" x1="63.402" y1="154.539" x2="63.402" y2="161.931" gradientUnits="userSpaceOnUse">
            <stop stop-color="#FAECD8"/>
            <stop offset=".492" stop-color="#F9EBD7"/>
            <stop offset="1" stop-color="#ECD5B4"/>
        </linearGradient>
        <linearGradient id="gold-cup-top_svg__paint12_linear" x1="61.772" y1="154.729" x2="61.772" y2="160.628" gradientUnits="userSpaceOnUse">
            <stop stop-color="#F9EBD7"/>
            <stop offset=".479" stop-color="#FAEDD9"/>
            <stop offset="1" stop-color="#F8E9D4"/>
        </linearGradient>
        <linearGradient id="gold-cup-top_svg__paint13_linear" x1="65.031" y1="154.729" x2="65.031" y2="160.628" gradientUnits="userSpaceOnUse">
            <stop stop-color="#FAEDD8"/>
            <stop offset=".479" stop-color="#FAECD8"/>
            <stop offset="1" stop-color="#EAD4B2"/>
        </linearGradient>
        <linearGradient id="gold-cup-top_svg__paint14_linear" x1="62.941" y1="161.04" x2="58.015" y2="161.625" gradientUnits="userSpaceOnUse">
            <stop stop-color="#E5CBA6"/>
            <stop offset=".31" stop-color="#FAEDDA"/>
            <stop offset=".524" stop-color="#F3E2C9"/>
            <stop offset=".614" stop-color="#EFDCC0"/>
            <stop offset="1" stop-color="#EFDCC0"/>
        </linearGradient>
    </defs>
</svg>
