<svg width="76" height="12" viewBox="0 0 76 12" fill="none" xmlns="http://www.w3.org/2000/svg">
    <g id="Property_1=5_svg__Property_1=5">
        <g id="Property_1=5_svg__icon/star-fill">
            <path id="Property_1=5_svg__􀋂" d="M2.792 10.89c.193.145.436.094.727-.117l2.48-1.819 2.484 1.819c.29.21.53.262.726.117.193-.145.235-.384.118-.726l-.98-2.916 2.503-1.8c.29-.206.408-.422.333-.656-.075-.225-.295-.338-.656-.333l-3.07.019-.933-2.93c-.113-.347-.282-.52-.525-.52-.24 0-.408.173-.52.52l-.934 2.93-3.07-.02c-.36-.004-.581.109-.656.334-.08.234.042.45.333.656l2.503 1.8-.98 2.916c-.117.342-.075.58.117.726z" fill="#FFB904"/>
        </g>
        <g id="Property_1=5_svg__icon/star-fill_2">
            <path id="Property_1=5_svg__􀋂_2" d="M18.792 10.89c.192.145.436.094.727-.117l2.48-1.819 2.484 1.819c.29.21.53.262.726.117.193-.145.235-.384.118-.726l-.98-2.916 2.503-1.8c.29-.206.408-.422.333-.656-.075-.225-.295-.338-.656-.333l-3.07.019-.933-2.93c-.113-.347-.282-.52-.525-.52-.24 0-.408.173-.52.52l-.934 2.93-3.07-.02c-.36-.004-.581.109-.656.334-.08.234.042.45.333.656l2.503 1.8-.98 2.916c-.117.342-.075.58.117.726z" fill="#FFB904"/>
        </g>
        <g id="Property_1=5_svg__icon/star-fill_3">
            <path id="Property_1=5_svg__􀋂_3" d="M34.792 10.89c.192.145.436.094.727-.117l2.48-1.819 2.484 1.819c.29.21.53.262.727.117.192-.145.234-.384.117-.726l-.98-2.916 2.503-1.8c.29-.206.408-.422.333-.656-.075-.225-.295-.338-.656-.333l-3.07.019-.933-2.93c-.113-.347-.282-.52-.525-.52-.24 0-.408.173-.52.52l-.934 2.93-3.07-.02c-.36-.004-.581.109-.656.334-.08.234.042.45.333.656l2.503 1.8-.98 2.916c-.117.342-.075.58.117.726z" fill="#FFB904"/>
        </g>
        <g id="Property_1=5_svg__icon/star-fill_4">
            <path id="Property_1=5_svg__􀋂_4" d="M50.792 10.89c.192.145.436.094.727-.117l2.48-1.819 2.484 1.819c.29.21.53.262.727.117.192-.145.234-.384.117-.726l-.98-2.916 2.503-1.8c.29-.206.408-.422.333-.656-.075-.225-.295-.338-.656-.333l-3.07.019-.933-2.93c-.113-.347-.282-.52-.525-.52-.24 0-.408.173-.52.52l-.934 2.93-3.07-.02c-.36-.004-.581.109-.656.334-.08.234.042.45.333.656l2.503 1.8-.98 2.916c-.117.342-.075.58.117.726z" fill="#FFB904"/>
        </g>
        <g id="Property_1=5_svg__icon/star-fill_5">
            <path id="Property_1=5_svg__􀋂_5" d="M66.792 10.89c.192.145.436.094.727-.117l2.48-1.819 2.484 1.819c.29.21.53.262.727.117.192-.145.234-.384.117-.726l-.98-2.916 2.503-1.8c.29-.206.408-.422.333-.656-.075-.225-.295-.338-.656-.333l-3.07.019-.933-2.93c-.113-.347-.282-.52-.525-.52-.24 0-.408.173-.52.52l-.934 2.93-3.07-.02c-.36-.004-.581.109-.656.334-.08.234.042.45.333.656l2.503 1.8-.98 2.916c-.117.342-.075.58.117.726z" fill="#FFB904"/>
        </g>
    </g>
</svg>
