<svg width="76" height="12" viewBox="0 0 76 12" fill="none" xmlns="http://www.w3.org/2000/svg">
    <g id="Property_1=1_svg__Property_1=1">
        <g id="Property_1=1_svg__icon/star-fill">
            <path id="Property_1=1_svg__􀋂" d="M2.792 10.89c.193.145.436.094.727-.117l2.48-1.819 2.484 1.819c.29.21.53.262.726.117.193-.145.235-.384.118-.726l-.98-2.916 2.503-1.8c.29-.206.408-.422.333-.656-.075-.225-.295-.338-.656-.333l-3.07.019-.933-2.93c-.113-.347-.282-.52-.525-.52-.24 0-.408.173-.52.52l-.934 2.93-3.07-.02c-.36-.004-.581.109-.656.334-.08.234.042.45.333.656l2.503 1.8-.98 2.916c-.117.342-.075.58.117.726z" fill="#FFB904"/>
        </g>
        <g id="Property_1=1_svg__icon/star">
            <path id="Property_1=1_svg__􀋂_2" d="M18.792 10.89c.192.145.436.094.727-.117l2.48-1.819 2.484 1.819c.29.21.53.262.726.117.193-.145.235-.384.118-.726l-.98-2.916 2.503-1.8c.29-.206.408-.422.333-.656-.075-.225-.295-.338-.656-.333l-3.07.019-.933-2.93c-.113-.347-.282-.52-.525-.52-.24 0-.408.173-.52.52l-.934 2.93-3.07-.02c-.36-.004-.581.109-.656.334-.08.234.042.45.333.656l2.503 1.8-.98 2.916c-.117.342-.075.58.117.726zm.675-.928c-.01-.01-.004-.014 0-.042l.933-2.682c.061-.182.028-.328-.136-.44L17.93 5.185c-.024-.014-.028-.023-.024-.037.005-.014.014-.014.043-.014l2.835.051c.193.005.315-.075.376-.267l.81-2.714c.01-.028.02-.037.029-.037.014 0 .023.009.028.037l.815 2.714c.057.192.183.272.375.267l2.836-.051c.028 0 .038 0 .042.014.005.014-.004.023-.023.037l-2.334 1.613c-.164.112-.202.258-.136.44l.933 2.682c.004.028.009.033 0 .042-.01.014-.024.005-.043-.01l-2.254-1.72a.363.363 0 0 0-.474 0l-2.255 1.72c-.018.015-.032.024-.042.01z" fill="#FFB904"/>
        </g>
        <g id="Property_1=1_svg__icon/star_2">
            <path id="Property_1=1_svg__􀋂_3" d="M34.792 10.89c.192.145.436.094.727-.117l2.48-1.819 2.484 1.819c.29.21.53.262.727.117.192-.145.234-.384.117-.726l-.98-2.916 2.503-1.8c.29-.206.408-.422.333-.656-.075-.225-.295-.338-.656-.333l-3.07.019-.933-2.93c-.113-.347-.282-.52-.525-.52-.24 0-.408.173-.52.52l-.934 2.93-3.07-.02c-.36-.004-.581.109-.656.334-.08.234.042.45.333.656l2.503 1.8-.98 2.916c-.117.342-.075.58.117.726zm.675-.928c-.01-.01-.004-.014 0-.042l.933-2.682c.061-.182.028-.328-.136-.44L33.93 5.185c-.024-.014-.028-.023-.024-.037.005-.014.014-.014.043-.014l2.836.051c.192.005.314-.075.375-.267l.81-2.714c.01-.028.02-.037.029-.037.014 0 .023.009.028.037l.815 2.714c.057.192.183.272.375.267l2.836-.051c.028 0 .038 0 .042.014.005.014-.004.023-.023.037l-2.334 1.613c-.164.112-.202.258-.136.44l.933 2.682c.004.028.009.033 0 .042-.01.014-.024.005-.043-.01l-2.254-1.72a.363.363 0 0 0-.474 0l-2.255 1.72c-.018.015-.032.024-.042.01z" fill="#FFB904"/>
        </g>
        <g id="Property_1=1_svg__icon/star_3">
            <path id="Property_1=1_svg__􀋂_4" d="M50.792 10.89c.192.145.436.094.727-.117l2.48-1.819 2.484 1.819c.29.21.53.262.727.117.192-.145.234-.384.117-.726l-.98-2.916 2.503-1.8c.29-.206.408-.422.333-.656-.075-.225-.295-.338-.656-.333l-3.07.019-.933-2.93c-.113-.347-.282-.52-.525-.52-.24 0-.408.173-.52.52l-.934 2.93-3.07-.02c-.36-.004-.581.109-.656.334-.08.234.042.45.333.656l2.503 1.8-.98 2.916c-.117.342-.075.58.117.726zm.675-.928c-.01-.01-.004-.014 0-.042l.933-2.682c.061-.182.028-.328-.136-.44L49.93 5.185c-.024-.014-.028-.023-.024-.037.005-.014.014-.014.043-.014l2.836.051c.192.005.314-.075.375-.267l.81-2.714c.01-.028.02-.037.029-.037.014 0 .023.009.028.037l.815 2.714c.057.192.183.272.375.267l2.836-.051c.028 0 .038 0 .042.014.005.014-.004.023-.023.037l-2.334 1.613c-.164.112-.202.258-.136.44l.933 2.682c.004.028.009.033 0 .042-.01.014-.024.005-.043-.01l-2.254-1.72a.363.363 0 0 0-.474 0l-2.255 1.72c-.018.015-.032.024-.042.01z" fill="#FFB904"/>
        </g>
        <g id="Property_1=1_svg__icon/star_4">
            <path id="Property_1=1_svg__􀋂_5" d="M66.792 10.89c.192.145.436.094.727-.117l2.48-1.819 2.484 1.819c.29.21.53.262.727.117.192-.145.234-.384.117-.726l-.98-2.916 2.503-1.8c.29-.206.408-.422.333-.656-.075-.225-.295-.338-.656-.333l-3.07.019-.933-2.93c-.113-.347-.282-.52-.525-.52-.24 0-.408.173-.52.52l-.934 2.93-3.07-.02c-.36-.004-.581.109-.656.334-.08.234.042.45.333.656l2.503 1.8-.98 2.916c-.117.342-.075.58.117.726zm.675-.928c-.01-.01-.004-.014 0-.042l.933-2.682c.061-.182.028-.328-.136-.44L65.93 5.185c-.024-.014-.028-.023-.024-.037.005-.014.014-.014.043-.014l2.835.051c.193.005.315-.075.375-.267l.811-2.714c.01-.028.02-.037.029-.037.014 0 .023.009.028.037l.815 2.714c.057.192.183.272.375.267l2.836-.051c.028 0 .038 0 .042.014.005.014-.004.023-.023.037l-2.334 1.613c-.164.112-.202.258-.136.44l.932 2.682c.005.028.01.033 0 .042-.009.014-.023.005-.042-.01l-2.254-1.72a.363.363 0 0 0-.474 0l-2.254 1.72c-.02.015-.033.024-.043.01z" fill="#FFB904"/>
        </g>
    </g>
</svg>
